<mxfile host="app.diagrams.net" modified="2023-06-19T19:13:40.883Z" agent="Mozilla/5.0 (Windows NT 10.0; Win64; x64) AppleWebKit/537.36 (KHTML, like Gecko) Chrome/114.0.0.0 Safari/537.36" etag="fs8zkiSAbm6H2Czq9LoK" version="21.5.0" type="github">
  <diagram name="Página-1" id="lAkauPNYXJCJpmrshA1p">
    <mxGraphModel dx="1311" dy="678" grid="1" gridSize="10" guides="1" tooltips="1" connect="1" arrows="1" fold="1" page="1" pageScale="1" pageWidth="827" pageHeight="1169" math="0" shadow="0">
      <root>
        <mxCell id="0" />
        <mxCell id="1" parent="0" />
        <mxCell id="IgNpNBEaQOaBEe1fBpIL-1" value="&lt;p style=&quot;line-height: 150%;&quot; class=&quot;MsoNoSpacing&quot;&gt;&lt;b&gt;&lt;font color=&quot;#9933ff&quot;&gt;ATENDIMENTO_PACIENTE&lt;/font&gt;&lt;/b&gt;&lt;span style=&quot;background-color: initial;&quot;&gt;&amp;nbsp;&lt;/span&gt;&lt;/p&gt;&lt;span style=&quot;background-color: rgb(255, 255, 255);&quot;&gt;&lt;font color=&quot;#66b2ff&quot;&gt;&lt;b&gt;PK: NR_ATENDIMENTO&lt;/b&gt;&lt;/font&gt;&lt;/span&gt;&lt;div style=&quot;&quot;&gt;&lt;span style=&quot;background-color: initial;&quot;&gt;&lt;br&gt;&lt;/span&gt;&lt;/div&gt;&lt;div style=&quot;background-color: initial;&quot;&gt;&lt;span style=&quot;background-color: initial;&quot;&gt;&lt;br&gt;&lt;/span&gt;&lt;/div&gt;&lt;div style=&quot;background-color: initial;&quot;&gt;&lt;span style=&quot;background-color: initial;&quot;&gt;NR_ATENDIMENTO (PK)&lt;/span&gt;&lt;/div&gt;&lt;div style=&quot;background-color: initial;&quot;&gt;&lt;span style=&quot;background-color: initial;&quot;&gt;(Número de Atendimento)&lt;/span&gt;&lt;/div&gt;&lt;div style=&quot;background-color: initial;&quot;&gt;&lt;span style=&quot;background-color: initial;&quot;&gt;&lt;br&gt;&lt;/span&gt;&lt;/div&gt;&lt;div style=&quot;background-color: initial;&quot;&gt;DT_ENTRADA&lt;span style=&quot;background-color: initial;&quot;&gt;&lt;br&gt;&lt;/span&gt;&lt;/div&gt;&lt;div style=&quot;background-color: initial;&quot;&gt;(Data de Entrada)&lt;/div&gt;&lt;div style=&quot;background-color: initial;&quot;&gt;&lt;br&gt;&lt;/div&gt;&lt;div style=&quot;background-color: initial;&quot;&gt;IE_TIPO_ATENDIMENTO ***&lt;br&gt;&lt;br&gt;CD_MEDICO_RESP ***&lt;br&gt;&lt;/div&gt;" style="whiteSpace=wrap;html=1;aspect=fixed;align=center;verticalAlign=middle;" vertex="1" parent="1">
          <mxGeometry x="20" y="30" width="320" height="320" as="geometry" />
        </mxCell>
        <mxCell id="IgNpNBEaQOaBEe1fBpIL-3" value="&lt;p style=&quot;line-height: 150%;&quot; class=&quot;MsoNoSpacing&quot;&gt;&lt;b&gt;&lt;font color=&quot;#9933ff&quot;&gt;PESSOA_FISICA&lt;/font&gt;&lt;/b&gt;&lt;/p&gt;&lt;p style=&quot;line-height: 150%;&quot; class=&quot;MsoNoSpacing&quot;&gt;&lt;b style=&quot;&quot;&gt;&lt;font color=&quot;#3399ff&quot;&gt;PK: CD_PESSOA_FISICA&lt;/font&gt;&lt;/b&gt;&lt;/p&gt;&lt;span style=&quot;background-color: initial;&quot;&gt;&lt;div style=&quot;&quot;&gt;&lt;span style=&quot;background-color: initial;&quot;&gt;&lt;br&gt;&lt;/span&gt;&lt;/div&gt;&lt;div style=&quot;&quot;&gt;&lt;span style=&quot;background-color: initial;&quot;&gt;NM_PESSOA_FISICA&lt;/span&gt;&lt;/div&gt;&lt;div style=&quot;&quot;&gt;&lt;span style=&quot;background-color: initial;&quot;&gt;(Nome do Paciente)&lt;/span&gt;&lt;/div&gt;&lt;/span&gt;" style="whiteSpace=wrap;html=1;aspect=fixed;verticalAlign=middle;align=center;" vertex="1" parent="1">
          <mxGeometry x="440" y="40" width="240" height="240" as="geometry" />
        </mxCell>
        <mxCell id="IgNpNBEaQOaBEe1fBpIL-6" value="&lt;p style=&quot;line-height: 150%;&quot; class=&quot;MsoNoSpacing&quot;&gt;&lt;br&gt;&lt;br&gt;&lt;/p&gt;&lt;div style=&quot;&quot;&gt;&lt;b style=&quot;background-color: initial;&quot;&gt;&lt;font color=&quot;#9933ff&quot;&gt;CONVENIO&lt;/font&gt;&lt;/b&gt;&lt;/div&gt;&lt;p&gt;&lt;/p&gt;&lt;span style=&quot;background-color: initial;&quot;&gt;&lt;div style=&quot;&quot;&gt;&lt;p style=&quot;line-height: 150%;&quot; class=&quot;MsoNoSpacing&quot;&gt;&lt;b style=&quot;border-color: var(--border-color);&quot;&gt;&lt;font style=&quot;border-color: var(--border-color);&quot; color=&quot;#3399ff&quot;&gt;PK: CD_CONVENIO&lt;/font&gt;&lt;/b&gt;&lt;span style=&quot;background-color: initial;&quot;&gt;&lt;br&gt;&lt;/span&gt;&lt;/p&gt;&lt;p style=&quot;line-height: 150%;&quot; class=&quot;MsoNoSpacing&quot;&gt;&lt;b style=&quot;border-color: var(--border-color);&quot;&gt;&lt;font style=&quot;border-color: var(--border-color);&quot; color=&quot;#3399ff&quot;&gt;&lt;br&gt;&lt;/font&gt;&lt;/b&gt;&lt;/p&gt;&lt;p style=&quot;line-height: 150%;&quot; class=&quot;MsoNoSpacing&quot;&gt;&lt;/p&gt;&lt;div style=&quot;&quot;&gt;&lt;span style=&quot;background-color: initial;&quot;&gt;DS_CONVENIO&lt;/span&gt;&lt;/div&gt;&lt;div style=&quot;&quot;&gt;&lt;span style=&quot;background-color: initial;&quot;&gt;(Nome do Convênio)&lt;/span&gt;&lt;/div&gt;&lt;p&gt;&lt;/p&gt;&lt;p style=&quot;line-height: 150%;&quot; class=&quot;MsoNoSpacing&quot;&gt;&lt;/p&gt;&lt;/div&gt;&lt;div style=&quot;&quot;&gt;&lt;br&gt;&lt;/div&gt;&lt;/span&gt;" style="whiteSpace=wrap;html=1;aspect=fixed;align=center;verticalAlign=middle;" vertex="1" parent="1">
          <mxGeometry x="760" y="40" width="240" height="240" as="geometry" />
        </mxCell>
        <mxCell id="IgNpNBEaQOaBEe1fBpIL-7" value="&lt;p style=&quot;line-height: 150%;&quot; class=&quot;MsoNoSpacing&quot;&gt;&lt;b&gt;&lt;font color=&quot;#9933ff&quot;&gt;???&lt;/font&gt;&lt;/b&gt;&lt;/p&gt;&lt;span style=&quot;background-color: initial;&quot;&gt;&lt;div style=&quot;&quot;&gt;&lt;br&gt;&lt;/div&gt;&lt;div style=&quot;&quot;&gt;&lt;span style=&quot;background-color: initial;&quot;&gt;???&lt;/span&gt;&lt;/div&gt;&lt;div style=&quot;&quot;&gt;(Nome do Médico)&lt;/div&gt;&lt;/span&gt;" style="whiteSpace=wrap;html=1;aspect=fixed;align=center;verticalAlign=middle;" vertex="1" parent="1">
          <mxGeometry x="280" y="400" width="240" height="240" as="geometry" />
        </mxCell>
        <mxCell id="IgNpNBEaQOaBEe1fBpIL-10" value="&lt;p style=&quot;line-height: 150%;&quot; class=&quot;MsoNoSpacing&quot;&gt;&lt;b&gt;&lt;font color=&quot;#9933ff&quot;&gt;???&lt;/font&gt;&lt;/b&gt;&lt;/p&gt;&lt;span style=&quot;background-color: initial;&quot;&gt;&lt;div style=&quot;&quot;&gt;&lt;br&gt;&lt;/div&gt;&lt;div style=&quot;&quot;&gt;&lt;span style=&quot;background-color: initial;&quot;&gt;???&lt;/span&gt;&lt;/div&gt;&lt;div style=&quot;&quot;&gt;(Tipo de Atendimento)&lt;/div&gt;&lt;/span&gt;" style="whiteSpace=wrap;html=1;aspect=fixed;align=center;verticalAlign=middle;" vertex="1" parent="1">
          <mxGeometry x="600" y="400" width="240" height="240" as="geometry" />
        </mxCell>
        <mxCell id="IgNpNBEaQOaBEe1fBpIL-14" value="" style="endArrow=classic;html=1;rounded=0;entryX=0.5;entryY=0;entryDx=0;entryDy=0;entryPerimeter=0;exitX=1.007;exitY=0.918;exitDx=0;exitDy=0;exitPerimeter=0;" edge="1" parent="1" source="IgNpNBEaQOaBEe1fBpIL-1" target="IgNpNBEaQOaBEe1fBpIL-7">
          <mxGeometry width="50" height="50" relative="1" as="geometry">
            <mxPoint x="320" y="260" as="sourcePoint" />
            <mxPoint x="370" y="210" as="targetPoint" />
            <Array as="points">
              <mxPoint x="400" y="324" />
            </Array>
          </mxGeometry>
        </mxCell>
        <mxCell id="IgNpNBEaQOaBEe1fBpIL-15" value="" style="endArrow=classic;html=1;rounded=0;entryX=0.5;entryY=0;entryDx=0;entryDy=0;exitX=1.009;exitY=0.625;exitDx=0;exitDy=0;exitPerimeter=0;" edge="1" parent="1" source="IgNpNBEaQOaBEe1fBpIL-1" target="IgNpNBEaQOaBEe1fBpIL-10">
          <mxGeometry width="50" height="50" relative="1" as="geometry">
            <mxPoint x="360" y="230" as="sourcePoint" />
            <mxPoint x="398" y="370" as="targetPoint" />
            <Array as="points">
              <mxPoint x="420" y="230" />
              <mxPoint x="420" y="320" />
              <mxPoint x="720" y="320" />
            </Array>
          </mxGeometry>
        </mxCell>
      </root>
    </mxGraphModel>
  </diagram>
</mxfile>
